# xmcd CD database file
#
# Track frame offsets:
#	150
#	38664
#	58566
#	97639
#	133879
#	174722
#	192475
#	218585
#	266523
#
# Disc length: 3801 seconds
#
# Revision: 0
# Processed by: cddbd v1.5.2PL0 Copyright (c) Steve Scherf et al.
# Submitted via: CDex 1.70beta2
#
DISCID=790ed709
DTITLE=Lalo Schifrin - Lalo Schifrin and Friends
DYEAR=2007
DGENRE=Jazz
TTITLE0=Besame Mucho
TTITLE1=Fast Forward
TTITLE2=Old Friends
TTITLE3=Free Parking
TTITLE4=Night Walk
TTITLE5=A Tribute to Bud
TTITLE6=Winter Landscapes
TTITLE7=Tin Tin Daeo
TTITLE8=Hymn to Freedom
EXTD=YEAR: 2007
EXTT0=
EXTT1=
EXTT2=
EXTT3=
EXTT4=
EXTT5=
EXTT6=
EXTT7=
EXTT8=
PLAYORDER=
